<?xml version="1.0" encoding="UTF-8"?>
<svg xmlns="http://www.w3.org/2000/svg" xmlns:xlink="http://www.w3.org/1999/xlink" width="516pt" height="132pt" viewBox="0 0 516 132" version="1.1">
<g id="surface1">
<path style="fill:none;stroke-width:1.2;stroke-linecap:butt;stroke-linejoin:round;stroke:rgb(20%,20%,20%);stroke-opacity:1;stroke-miterlimit:10;" d="M 272.001562 720 L 272.001562 688 L 336.001562 688 L 336.001562 720 Z M 272.001562 720 " transform="matrix(1,0,0,-1,-47.4,770.5)"/>
<path style="fill:none;stroke-width:1.2;stroke-linecap:butt;stroke-linejoin:round;stroke:rgb(20%,20%,20%);stroke-opacity:1;stroke-miterlimit:10;" d="M 304.001562 720 L 304.001562 688 " transform="matrix(1,0,0,-1,-47.4,770.5)"/>
<path style=" stroke:none;fill-rule:evenodd;fill:rgb(20%,20%,20%);fill-opacity:1;" d="M 274.398438 66.5 C 274.398438 64.101562 270.800781 64.101562 270.800781 66.5 C 270.800781 68.898438 274.398438 68.898438 274.398438 66.5 Z M 274.398438 66.5 "/>
<path style="fill:none;stroke-width:1.2;stroke-linecap:butt;stroke-linejoin:round;stroke:rgb(20%,20%,20%);stroke-opacity:1;stroke-miterlimit:10;" d="M 320.001562 704.027344 L 366.384375 704.027344 " transform="matrix(1,0,0,-1,-47.4,770.5)"/>
<path style="fill-rule:evenodd;fill:rgb(20%,20%,20%);fill-opacity:1;stroke-width:1.2;stroke-linecap:butt;stroke-linejoin:round;stroke:rgb(20%,20%,20%);stroke-opacity:1;stroke-miterlimit:10;" d="M 366.384375 704.027344 L 359.384375 706.359375 L 359.384375 701.695312 Z M 366.384375 704.027344 " transform="matrix(1,0,0,-1,-47.4,770.5)"/>
<path style="fill:none;stroke-width:1.2;stroke-linecap:butt;stroke-linejoin:round;stroke:rgb(20%,20%,20%);stroke-opacity:1;stroke-miterlimit:10;" d="M 368.001562 720 L 368.001562 688 L 432.001562 688 L 432.001562 720 Z M 368.001562 720 " transform="matrix(1,0,0,-1,-47.4,770.5)"/>
<path style="fill:none;stroke-width:1.2;stroke-linecap:butt;stroke-linejoin:round;stroke:rgb(20%,20%,20%);stroke-opacity:1;stroke-miterlimit:10;" d="M 400.001562 720 L 400.001562 688 " transform="matrix(1,0,0,-1,-47.4,770.5)"/>
<path style=" stroke:none;fill-rule:evenodd;fill:rgb(20%,20%,20%);fill-opacity:1;" d="M 370.398438 66.5 C 370.398438 64.101562 366.800781 64.101562 366.800781 66.5 C 366.800781 68.898438 370.398438 68.898438 370.398438 66.5 Z M 370.398438 66.5 "/>
<path style="fill:none;stroke-width:1.2;stroke-linecap:butt;stroke-linejoin:round;stroke:rgb(20%,20%,20%);stroke-opacity:1;stroke-miterlimit:10;" d="M 416.001562 704.027344 L 462.384375 704.027344 " transform="matrix(1,0,0,-1,-47.4,770.5)"/>
<path style="fill-rule:evenodd;fill:rgb(20%,20%,20%);fill-opacity:1;stroke-width:1.2;stroke-linecap:butt;stroke-linejoin:round;stroke:rgb(20%,20%,20%);stroke-opacity:1;stroke-miterlimit:10;" d="M 462.384375 704.027344 L 455.384375 706.359375 L 455.384375 701.695312 Z M 462.384375 704.027344 " transform="matrix(1,0,0,-1,-47.4,770.5)"/>
<path style="fill:none;stroke-width:1.2;stroke-linecap:butt;stroke-linejoin:round;stroke:rgb(20%,20%,20%);stroke-opacity:1;stroke-miterlimit:10;" d="M 464.001562 720 L 464.001562 688 L 528.001562 688 L 528.001562 720 Z M 464.001562 720 " transform="matrix(1,0,0,-1,-47.4,770.5)"/>
<path style="fill:none;stroke-width:1.2;stroke-linecap:butt;stroke-linejoin:round;stroke:rgb(20%,20%,20%);stroke-opacity:1;stroke-miterlimit:10;" d="M 496.001562 720 L 496.001562 688 " transform="matrix(1,0,0,-1,-47.4,770.5)"/>
<path style=" stroke:none;fill-rule:evenodd;fill:rgb(20%,20%,20%);fill-opacity:1;" d="M 466.398438 66.5 C 466.398438 64.101562 462.800781 64.101562 462.800781 66.5 C 462.800781 68.898438 466.398438 68.898438 466.398438 66.5 Z M 466.398438 66.5 "/>
<path style="fill:none;stroke-width:1.2;stroke-linecap:butt;stroke-linejoin:round;stroke:rgb(20%,20%,20%);stroke-opacity:1;stroke-miterlimit:10;" d="M 512.001562 704.027344 L 560.001562 704 L 560.001562 688 " transform="matrix(1,0,0,-1,-47.4,770.5)"/>
<path style="fill-rule:evenodd;fill:rgb(20%,20%,20%);fill-opacity:1;stroke-width:1.2;stroke-linecap:butt;stroke-linejoin:round;stroke:rgb(20%,20%,20%);stroke-opacity:1;stroke-miterlimit:10;" d="M 560.001562 688 L 562.329687 695 L 557.669531 695 Z M 560.001562 688 " transform="matrix(1,0,0,-1,-47.4,770.5)"/>
<path style="fill:none;stroke-width:1.2;stroke-linecap:butt;stroke-linejoin:round;stroke:rgb(20%,20%,20%);stroke-opacity:1;stroke-miterlimit:10;" d="M 224.001563 720 L 224.001563 704 L 270.384375 704.027344 " transform="matrix(1,0,0,-1,-47.4,770.5)"/>
<path style="fill-rule:evenodd;fill:rgb(20%,20%,20%);fill-opacity:1;stroke-width:1.2;stroke-linecap:butt;stroke-linejoin:round;stroke:rgb(20%,20%,20%);stroke-opacity:1;stroke-miterlimit:10;" d="M 270.384375 704.027344 L 263.384375 706.355469 L 263.388281 701.691406 Z M 270.384375 704.027344 " transform="matrix(1,0,0,-1,-47.4,770.5)"/>
<path style=" stroke:none;fill-rule:evenodd;fill:rgb(20%,20%,20%);fill-opacity:1;" d="M 178.398438 50.5 C 178.398438 48.101562 174.800781 48.101562 174.800781 50.5 C 174.800781 52.898438 178.398438 52.898438 178.398438 50.5 Z M 178.398438 50.5 "/>
<path style="fill:none;stroke-width:1.2;stroke-linecap:butt;stroke-linejoin:round;stroke:rgb(20%,20%,20%);stroke-opacity:1;stroke-miterlimit:10;" d="M 48.001562 768 L 48.001562 640 L 128.001563 640 L 128.001563 768 " transform="matrix(1,0,0,-1,-47.4,770.5)"/>
<path style="fill:none;stroke-width:1.2;stroke-linecap:butt;stroke-linejoin:round;stroke:rgb(20%,20%,20%);stroke-opacity:1;stroke-miterlimit:10;" d="M 48.001562 672 L 128.001563 672 " transform="matrix(1,0,0,-1,-47.4,770.5)"/>
<path style="fill:none;stroke-width:1.2;stroke-linecap:butt;stroke-linejoin:round;stroke:rgb(20%,20%,20%);stroke-opacity:1;stroke-miterlimit:10;" d="M 48.001562 704 L 128.001563 704 " transform="matrix(1,0,0,-1,-47.4,770.5)"/>
<path style="fill:none;stroke-width:1.2;stroke-linecap:butt;stroke-linejoin:round;stroke:rgb(20%,20%,20%);stroke-opacity:1;stroke-miterlimit:10;" d="M 48.001562 736 L 128.001563 736 " transform="matrix(1,0,0,-1,-47.4,770.5)"/>
<path style="fill:none;stroke-width:1.2;stroke-linecap:butt;stroke-linejoin:round;stroke:rgb(20%,20%,20%);stroke-opacity:1;stroke-miterlimit:10;" d="M 48.001562 768 L 128.001563 768 " transform="matrix(1,0,0,-1,-47.4,770.5)"/>
<path style="fill:none;stroke-width:1.2;stroke-linecap:butt;stroke-linejoin:round;stroke:rgb(20%,20%,20%);stroke-opacity:1;stroke-miterlimit:10;" d="M 129.614844 719.972656 L 176.001563 720 L 176.001563 768 " transform="matrix(1,0,0,-1,-47.4,770.5)"/>
<path style="fill-rule:evenodd;fill:rgb(20%,20%,20%);fill-opacity:1;stroke-width:1.2;stroke-linecap:butt;stroke-linejoin:round;stroke:rgb(20%,20%,20%);stroke-opacity:1;stroke-miterlimit:10;" d="M 129.614844 719.972656 L 136.614844 717.644531 L 136.610938 722.308594 Z M 129.614844 719.972656 " transform="matrix(1,0,0,-1,-47.4,770.5)"/>
<path style=" stroke:none;fill-rule:evenodd;fill:rgb(20%,20%,20%);fill-opacity:1;" d="M 130.398438 2.5 C 130.398438 0.101562 126.800781 0.101562 126.800781 2.5 C 126.800781 4.898438 130.398438 4.898438 130.398438 2.5 Z M 130.398438 2.5 "/>
</g>
</svg>
